<?xml version="1.0" encoding="utf-8"?>
<!-- Generator: Adobe Illustrator 23.0.3, SVG Export Plug-In . SVG Version: 6.00 Build 0)  -->
<svg version="1.1" id="Ebene_1" xmlns="http://www.w3.org/2000/svg" xmlns:xlink="http://www.w3.org/1999/xlink" x="0px" y="0px"
	 viewBox="0 0 356.9 356.9" style="enable-background:new 0 0 356.9 356.9;" xml:space="preserve">
<style type="text/css">
	.st0{fill:none;stroke:#009900;stroke-width:3.744;stroke-miterlimit:10;}
	.st1{fill:none;stroke:#009900;stroke-width:2.008;stroke-miterlimit:10;}
	.st2{fill:none;stroke:#009900;stroke-width:11.959;stroke-miterlimit:10;}
	.st3{fill:none;stroke:#009900;stroke-width:2.072;stroke-miterlimit:10;}
	.st4{fill-rule:evenodd;clip-rule:evenodd;}
	.st5{fill-rule:evenodd;clip-rule:evenodd;fill:#009900;}
	.st6{fill:none;stroke:#009900;stroke-miterlimit:10;}
</style>
<ellipse transform="matrix(0.7071 -0.7071 0.7071 0.7071 -73.9159 178.4492)" class="st0" cx="178.45" cy="178.45" rx="176.58" ry="176.58"/>
<line class="st1" x1="169.16" y1="1.87" x2="169.16" y2="355.03"/>
<line class="st1" x1="144.37" y1="6.14" x2="144.37" y2="351.02"/>
<line class="st1" x1="119.59" y1="14.26" x2="119.59" y2="344.24"/>
<line class="st1" x1="193.94" y1="1.87" x2="193.94" y2="355.03"/>
<line class="st1" x1="243.5" y1="14.26" x2="243.5" y2="342.63"/>
<line class="st1" x1="268.29" y1="26.65" x2="268.29" y2="330.24"/>
<line class="st1" x1="293.07" y1="45.24" x2="293.07" y2="311.66"/>
<line class="st1" x1="317.85" y1="70.02" x2="317.85" y2="286.87"/>
<path class="st2" d="M3.21,188.29c26.64,0,26.64-17.85,35.83,1.98c11.94,25.78,16.45-28.73,18.37-20.82
	c2.67,10.93,4.83,32.89,9.58,43.72c3.52,8.01,19.31-38.7,21.85-42.82c8.48-13.73,23.59,74.94,32.78,74.94"/>
<line class="st1" x1="342.64" y1="113.39" x2="342.64" y2="243.5"/>
<line class="st1" x1="1.87" y1="187.74" x2="355.03" y2="187.74"/>
<line class="st1" x1="6.42" y1="212.53" x2="348.83" y2="212.53"/>
<line class="st1" x1="12.57" y1="237.31" x2="342.63" y2="237.31"/>
<line class="st1" x1="24.61" y1="262.09" x2="334.39" y2="262.09"/>
<line class="st1" x1="39.05" y1="286.87" x2="317.85" y2="286.87"/>
<line class="st1" x1="63.83" y1="311.66" x2="293.89" y2="311.66"/>
<line class="st1" x1="101" y1="336.44" x2="255.9" y2="336.44"/>
<line class="st1" x1="1.87" y1="162.96" x2="355.03" y2="162.96"/>
<line class="st1" x1="8.07" y1="138.18" x2="348.83" y2="138.18"/>
<line class="st1" x1="14.26" y1="113.39" x2="342.63" y2="113.39"/>
<line class="st1" x1="26.65" y1="88.61" x2="330.24" y2="88.61"/>
<line class="st3" x1="45.24" y1="63.83" x2="45.46" y2="293.07"/>
<line class="st1" x1="45.24" y1="63.83" x2="311.66" y2="63.83"/>
<line class="st1" x1="70.02" y1="39.05" x2="286.87" y2="39.05"/>
<line class="st1" x1="113.61" y1="14.26" x2="243.72" y2="14.26"/>
<path class="st4" d="M259.48,290.65l0.35,0.18h84.83c0.23,0,0.52-0.17,0.87-0.5c0.35-0.33,0.52-0.65,0.52-0.95v-22.06
	c0-0.3-0.17-0.62-0.52-0.95c-0.35-0.33-0.64-0.5-0.87-0.5h-84.83c-0.29,0-0.59,0.17-0.91,0.5c-0.32,0.33-0.48,0.65-0.48,0.95v22.06
	l0.17,0.36L259.48,290.65 M290.89,355.85c0.06,0,0.13,0.03,0.22,0.09c0.09,0.06,0.16,0.09,0.22,0.09h21.84
	c0.29,0,0.59-0.17,0.91-0.5c0.32-0.33,0.48-0.65,0.48-0.95v-54.8c0-0.3-0.16-0.62-0.48-0.95c-0.32-0.33-0.62-0.5-0.91-0.5h-21.84
	c-0.29,0-0.59,0.17-0.91,0.5c-0.32,0.33-0.48,0.65-0.48,0.95v54.8c0.06,0.24,0.12,0.36,0.17,0.36c0.06,0.12,0.19,0.27,0.39,0.45
	S290.83,355.72,290.89,355.85z"/>
<line class="st1" x1="70.24" y1="39.05" x2="70.24" y2="317.85"/>
<line class="st1" x1="95.03" y1="24.52" x2="95.03" y2="334.39"/>
<path class="st5" d="M156.72,168.74c-2.93,10.53-7.03,26.47-12.3,47.77c-1.27,7.33-2.47,14.67-3.63,21.97
	c-2.67,9.23-7.57,13.87-14.74,13.87c-4.5,0-8.03-1.53-10.63-4.6c-2.23-2.6-3.33-5.7-3.33-9.27c0-10.53,2.23-23.4,6.73-38.57
	c6.7-22.73,10.33-35.33,10.83-37.8c1.9-10.03,3.83-20.07,5.77-30.1c2.93-13.8,6.1-23,9.54-27.57c3.4-4.6,7.73-6.9,12.93-6.9
	c5.93,0,10.3,3,13.1,9c2.6,5.63,5.4,17.23,8.4,34.73c2.83,17,7.1,35.3,12.77,54.9c7.43-19.33,14.33-40.57,20.7-63.67l5.47-22.47
	c3.5-9.3,8.97-13.97,16.3-13.97c7.1,0,12.37,5.4,15.84,16.2c1.43,4.37,2.97,12.5,4.6,24.43c3.77,27.73,8.5,51.47,14.24,71.27
	c5.8,20.13,8.7,31.07,8.7,32.83c0,3.83-1.53,7.03-4.6,9.67c-2.87,2.33-6.07,3.5-9.67,3.5c-7.07,0-12.37-5.07-15.8-15.23l-5.47-23.63
	c-3.13-11.7-6.54-28.53-10.17-50.47c-2.93,8.7-7.77,22.43-14.57,41.1l-5.83,17.97c-2.43,7.1-4.93,12.93-7.53,17.5
	c-3.43,6.03-8.27,9.07-14.43,9.07c-6.13,0-10.8-3.6-14.07-10.83l-5.47-18.17C165.32,204.61,160.75,187.11,156.72,168.74"/>
<path class="st6" d="M156.72,168.74c-2.93,10.53-7.03,26.47-12.3,47.77c-1.27,7.33-2.47,14.67-3.63,21.97
	c-2.67,9.23-7.57,13.87-14.74,13.87c-4.5,0-8.03-1.53-10.63-4.6c-2.23-2.6-3.33-5.7-3.33-9.27c0-10.53,2.23-23.4,6.73-38.57
	c6.7-22.73,10.33-35.33,10.83-37.8c1.9-10.03,3.83-20.07,5.77-30.1c2.93-13.8,6.1-23,9.54-27.57c3.4-4.6,7.73-6.9,12.93-6.9
	c5.93,0,10.3,3,13.1,9c2.6,5.63,5.4,17.23,8.4,34.73c2.83,17,7.1,35.3,12.77,54.9c7.43-19.33,14.33-40.57,20.7-63.67l5.47-22.47
	c3.5-9.3,8.97-13.97,16.3-13.97c7.1,0,12.37,5.4,15.84,16.2c1.43,4.37,2.97,12.5,4.6,24.43c3.77,27.73,8.5,51.47,14.24,71.27
	c5.8,20.13,8.7,31.07,8.7,32.83c0,3.83-1.53,7.03-4.6,9.67c-2.87,2.33-6.07,3.5-9.67,3.5c-7.07,0-12.37-5.07-15.8-15.23l-5.47-23.63
	c-3.13-11.7-6.54-28.53-10.17-50.47c-2.93,8.7-7.77,22.43-14.57,41.1l-5.83,17.97c-2.43,7.1-4.93,12.93-7.53,17.5
	c-3.43,6.03-8.27,9.07-14.43,9.07c-6.13,0-10.8-3.6-14.07-10.83l-5.47-18.17C165.32,204.61,160.75,187.11,156.72,168.74"/>
<line class="st1" x1="218.72" y1="8.07" x2="218.72" y2="348.83"/>
<line class="st1" x1="70.24" y1="39.05" x2="70.24" y2="317.85"/>
<line class="st1" x1="45.46" y1="63.83" x2="45.46" y2="293.07"/>
<line class="st1" x1="20.68" y1="101" x2="20.68" y2="255.89"/>
<path class="st4" d="M250.92,288.41c0-2.53-0.45-4.93-1.35-7.22s-2.1-4.36-3.6-6.23c-1.5-1.87-3.22-3.49-5.16-4.88
	c-1.94-1.38-3.92-2.47-5.94-3.25c-0.49-0.18-0.92-0.36-1.27-0.54c-0.35-0.18-0.83-0.27-1.43-0.27h-61.69c-0.27,0-0.56,0.17-0.86,0.5
	c-0.3,0.33-0.45,0.65-0.45,0.95v22.84c0,0.3,0.15,0.62,0.45,0.95c0.3,0.33,0.59,0.5,0.86,0.5h79.31c0.22,0,0.44-0.15,0.66-0.45
	c0.22-0.3,0.36-0.57,0.41-0.81c0.05-0.12,0.08-0.45,0.08-0.99C250.92,288.95,250.92,288.59,250.92,288.41 M251.66,322.17v-22.3
	c0-0.3-0.16-0.62-0.49-0.95c-0.33-0.33-0.6-0.5-0.82-0.5h-20.81c-0.27,0-0.56,0.17-0.86,0.5c-0.3,0.33-0.45,0.65-0.45,0.95v22.3
	c0.16,0.3,0.3,0.48,0.41,0.54c0,0.06,0.03,0.11,0.08,0.14c0.05,0.03,0.08,0.08,0.08,0.14c0.11,0.06,0.3,0.18,0.57,0.36h21.14
	L251.66,322.17z M169.16,322.17l1.15,1.17h21.14c0.27-0.18,0.46-0.3,0.57-0.36c0-0.06,0.03-0.11,0.08-0.14
	c0.05-0.03,0.08-0.08,0.08-0.14c0.05-0.06,0.19-0.24,0.41-0.54v-22.3c0-0.3-0.16-0.62-0.49-0.95c-0.33-0.33-0.6-0.5-0.82-0.5h-20.65
	c-0.16,0-0.45,0.18-0.86,0.54c-0.41,0.36-0.61,0.66-0.61,0.9V322.17z M169.16,332.28v22.3c0,0.3,0.15,0.62,0.45,0.95
	c0.3,0.33,0.59,0.5,0.86,0.5h61.69c0.49,0,1.15-0.15,1.97-0.45c0.82-0.3,1.67-0.66,2.54-1.08c0.87-0.42,1.69-0.86,2.46-1.31
	c0.76-0.45,1.34-0.83,1.72-1.13c1.26-0.9,2.49-2.03,3.69-3.38c1.2-1.35,2.28-2.83,3.24-4.42c0.96-1.59,1.72-3.26,2.29-5.01
	c0.57-1.75,0.86-3.49,0.86-5.24c0-0.12,0-0.39,0-0.81c0-0.48-0.03-0.78-0.08-0.9c-0.05-0.24-0.19-0.5-0.41-0.77
	c-0.22-0.27-0.44-0.41-0.66-0.41H170.3L169.16,332.28z"/>
</svg>
