<?xml version="1.0" encoding="utf-8"?>
<!-- Generator: Adobe Illustrator 23.0.3, SVG Export Plug-In . SVG Version: 6.00 Build 0)  -->
<svg version="1.1" id="Ebene_1" xmlns="http://www.w3.org/2000/svg" xmlns:xlink="http://www.w3.org/1999/xlink" x="0px" y="0px"
	 viewBox="0 0 356.9 356.9" style="enable-background:new 0 0 356.9 356.9;" xml:space="preserve">
<style type="text/css">
	.st0{fill:none;stroke:#009900;stroke-width:8;stroke-miterlimit:10;}
	.st1{fill:none;stroke:#009900;stroke-width:2.008;stroke-miterlimit:10;}
	.st2{fill:none;stroke:#009900;stroke-width:12;stroke-miterlimit:10;}
	.st3{fill:none;stroke:#009900;stroke-width:2.072;stroke-miterlimit:10;}
	.st4{fill-rule:evenodd;clip-rule:evenodd;fill:#009900;}
</style>
<ellipse class="st0" cx="178.03" cy="178.6" rx="174.82" ry="174.21"/>
<line class="st1" x1="169.16" y1="1.87" x2="169.16" y2="355.03"/>
<line class="st1" x1="144.37" y1="6.14" x2="144.37" y2="351.02"/>
<line class="st1" x1="119.59" y1="14.26" x2="119.59" y2="344.24"/>
<line class="st1" x1="193.94" y1="1.87" x2="193.94" y2="355.03"/>
<line class="st1" x1="243.5" y1="14.26" x2="243.5" y2="342.63"/>
<line class="st1" x1="268.29" y1="26.65" x2="268.29" y2="330.24"/>
<line class="st1" x1="293.07" y1="45.24" x2="293.07" y2="311.66"/>
<line class="st1" x1="317.85" y1="70.02" x2="317.85" y2="286.87"/>
<path class="st2" d="M3.21,175.76c18.43,0,18.43-24.5,24.78,2.72c8.26,35.39,11.37-39.44,12.71-28.59
	c1.84,15.01,3.34,45.15,6.62,60.02c2.43,11,13.35-53.12,15.11-58.78C68.3,132.28,78.76,254,85.11,254"/>
<line class="st1" x1="342.64" y1="113.39" x2="342.64" y2="243.5"/>
<line class="st1" x1="1.87" y1="187.74" x2="355.03" y2="187.74"/>
<line class="st1" x1="6.42" y1="212.53" x2="348.83" y2="212.53"/>
<line class="st1" x1="12.57" y1="237.31" x2="342.63" y2="237.31"/>
<line class="st1" x1="24.61" y1="262.09" x2="334.39" y2="262.09"/>
<line class="st1" x1="39.05" y1="286.87" x2="317.85" y2="286.87"/>
<line class="st1" x1="63.83" y1="311.66" x2="293.89" y2="311.66"/>
<line class="st1" x1="101" y1="336.44" x2="255.9" y2="336.44"/>
<line class="st1" x1="1.87" y1="162.96" x2="355.03" y2="162.96"/>
<line class="st1" x1="8.07" y1="138.18" x2="348.83" y2="138.18"/>
<line class="st1" x1="14.26" y1="113.39" x2="342.63" y2="113.39"/>
<line class="st1" x1="26.65" y1="88.61" x2="330.24" y2="88.61"/>
<line class="st3" x1="45.24" y1="63.83" x2="45.46" y2="293.07"/>
<line class="st1" x1="45.24" y1="63.83" x2="311.66" y2="63.83"/>
<line class="st1" x1="70.02" y1="39.05" x2="286.87" y2="39.05"/>
<line class="st1" x1="113.61" y1="14.26" x2="243.72" y2="14.26"/>
<line class="st1" x1="70.24" y1="39.05" x2="70.24" y2="317.85"/>
<line class="st1" x1="95.03" y1="24.52" x2="95.03" y2="334.39"/>
<path class="st4" d="M145.37,143.9c-4.43,15.63-10.62,39.28-18.57,70.9c-1.91,10.88-3.72,21.77-5.49,32.6
	c-4.02,13.7-11.42,20.58-22.24,20.58c-6.79,0-12.13-2.28-16.05-6.83c-3.37-3.86-5.03-8.46-5.03-13.75
	c0-15.63,3.37-34.73,10.17-57.24c10.12-33.74,15.6-52.44,16.36-56.1c2.87-14.89,5.79-29.78,8.71-44.68
	c4.43-20.48,9.21-34.14,14.39-40.92c5.13-6.83,11.68-10.24,19.53-10.24c8.96,0,15.55,4.45,19.78,13.36
	c3.92,8.36,8.15,25.58,12.68,51.55c4.28,25.23,10.72,52.39,19.27,81.49c11.22-28.7,21.64-60.21,31.25-94.5l8.25-33.35
	c5.29-13.8,13.54-20.73,24.61-20.73c10.72,0,18.67,8.02,23.91,24.05c2.16,6.48,4.48,18.55,6.94,36.26
	c5.69,41.16,12.83,76.39,21.49,105.78c8.76,29.88,13.13,46.11,13.13,48.73c0,5.69-2.31,10.44-6.94,14.35
	c-4.33,3.46-9.16,5.2-14.59,5.2c-10.67,0-18.67-7.52-23.85-22.61l-8.25-35.08c-4.73-17.37-9.87-42.35-15.35-74.91
	c-4.43,12.91-11.73,33.3-21.99,61l-8.81,26.67c-3.67,10.54-7.45,19.2-11.37,25.97c-5.18,8.96-12.48,13.46-21.79,13.46
	c-9.26,0-16.31-5.34-21.24-16.08L166,221.88C158.35,197.14,151.46,171.16,145.37,143.9"/>
<line class="st1" x1="218.72" y1="8.07" x2="218.72" y2="348.83"/>
<line class="st1" x1="70.24" y1="39.05" x2="70.24" y2="317.85"/>
<line class="st1" x1="45.46" y1="63.83" x2="45.46" y2="293.07"/>
<line class="st1" x1="20.68" y1="101" x2="20.68" y2="255.89"/>
</svg>
